<svg width="88" height="38" viewBox="0 0 88 38" fill="none" xmlns="http://www.w3.org/2000/svg">
<path d="M0 21.2606V18.9254H1.85615V15.1533C1.85615 14.0755 2.03577 13.1175 2.39503 12.3391C2.75428 11.5009 3.23329 10.8422 3.83204 10.2435C4.4308 9.64472 5.14931 9.22559 6.04744 8.98609C6.8857 8.68671 7.78384 8.50708 8.80172 8.50708V10.7824C7.48446 10.8422 6.4067 11.2614 5.56844 12.0397C4.73018 12.8181 4.1913 13.7761 4.1913 15.2132V18.9254H7.54434V21.2606H4.1913V29.9426H1.79627V21.2606H0Z" fill="white"/>
<path d="M12.7535 29.8827H10.3585V8.4472H12.7535V29.8827Z" fill="white"/>
<path d="M15.3281 24.5538C15.3281 23.7754 15.4479 23.0569 15.7473 22.3982C16.0466 21.7396 16.4658 21.1408 16.9448 20.602C17.4836 20.123 18.0824 19.7038 18.741 19.4045C19.4595 19.1051 20.1781 18.9853 20.9564 18.9853C21.7348 18.9853 22.5132 19.1051 23.2317 19.4045C23.9502 19.7038 24.549 20.123 25.0879 20.602C25.6267 21.081 25.986 21.6797 26.2854 22.3982C26.5848 23.0569 26.7045 23.8353 26.7045 24.5538C26.7045 25.3321 26.5848 26.0507 26.2854 26.7692C25.986 27.4278 25.5669 28.0265 25.0879 28.5654C24.549 29.1043 23.9502 29.4636 23.2317 29.7629C22.5132 30.0623 21.7947 30.1821 20.9564 30.1821C20.1182 30.1821 19.3997 30.0623 18.741 29.7629C18.0225 29.4636 17.4238 29.0444 16.9448 28.5654C16.4059 28.0265 16.0466 27.4278 15.7473 26.7692C15.4479 26.0507 15.3281 25.3321 15.3281 24.5538ZM17.6633 24.5538C17.6633 25.0328 17.7232 25.4519 17.9028 25.8111C18.0824 26.2303 18.3219 26.5297 18.6213 26.829C18.9207 27.1284 19.2799 27.3679 19.6392 27.5475C20.0583 27.7272 20.4774 27.787 20.8966 27.787C21.3157 27.787 21.7947 27.7272 22.154 27.5475C22.5731 27.3679 22.9323 27.1284 23.2317 26.829C23.5311 26.5297 23.7706 26.1704 23.9502 25.8111C24.1298 25.392 24.1897 24.9729 24.1897 24.5538C24.1897 24.1346 24.1298 23.6556 23.9502 23.2964C23.7706 22.8772 23.5311 22.518 23.2317 22.2186C22.9323 21.9192 22.5731 21.6797 22.154 21.5001C21.7348 21.3205 21.3157 21.2606 20.8966 21.2606C20.4774 21.2606 19.9984 21.3205 19.6392 21.5001C19.22 21.6797 18.9207 21.9192 18.6213 22.2186C18.3219 22.518 18.0824 22.8772 17.9028 23.2964C17.783 23.6556 17.6633 24.0748 17.6633 24.5538Z" fill="white"/>
<path d="M40.7754 24.5538C40.7754 25.3321 40.6556 26.0507 40.3562 26.7093C40.0569 27.3679 39.6377 27.9667 39.1587 28.5056C38.6198 29.0444 38.0211 29.4037 37.3026 29.7031C36.5841 30.0024 35.8656 30.1222 35.0273 30.1222C34.4285 30.1222 33.9495 30.0623 33.4705 29.9426C33.0514 29.8228 32.6323 29.6432 32.3329 29.5234C32.0335 29.3438 31.794 29.2241 31.6144 29.0444C31.4348 28.8648 31.3749 28.8049 31.3749 28.7451C31.4348 28.8648 31.4348 28.9247 31.4946 29.0444C31.5545 29.1642 31.6144 29.2839 31.6144 29.3438V37.0079H29.2194V19.1649H31.1953C31.1953 19.4045 31.1953 19.644 31.2551 19.8236C31.2551 20.0631 31.315 20.2427 31.315 20.4822C31.315 20.4223 31.4348 20.3026 31.6144 20.123C31.794 19.9433 32.0335 19.7637 32.3928 19.5841C32.6921 19.4045 33.1113 19.2248 33.5304 19.1051C33.9495 18.9254 34.4285 18.8656 34.9674 18.8656C35.7458 18.8656 36.5242 18.9853 37.2427 19.2847C37.9612 19.5841 38.56 20.0032 39.0988 20.4822C39.6377 21.0211 39.997 21.6199 40.2964 22.2785C40.5957 23.0569 40.7754 23.7754 40.7754 24.5538ZM38.3803 24.5538C38.3803 23.5957 38.081 22.8174 37.4223 22.2186C36.8236 21.6199 35.9853 21.2606 35.0273 21.2606C34.0693 21.2606 33.231 21.56 32.6323 22.2186C32.0335 22.8174 31.6743 23.5957 31.6743 24.5538C31.6743 25.5118 31.9736 26.2902 32.6323 26.8889C33.231 27.5475 34.0693 27.8469 35.0273 27.8469C35.9853 27.8469 36.8236 27.5475 37.4223 26.8889C38.081 26.2303 38.3803 25.4519 38.3803 24.5538Z" fill="white"/>
<path d="M49.8765 20.123C49.637 20.4223 49.4574 20.7217 49.2179 21.0211C48.9783 21.3205 48.7987 21.6198 48.5592 21.9192C48.4395 21.7995 48.2598 21.6797 48.0203 21.5001C47.721 21.3205 47.3617 21.2606 46.9426 21.2606C46.5234 21.2606 46.2241 21.3803 46.0444 21.56C45.8648 21.7396 45.8049 21.9791 45.8049 22.2785C45.8648 22.518 45.9846 22.6976 46.2241 22.8174C46.4636 22.9371 46.7629 23.1167 47.1222 23.2365C47.4815 23.3562 47.8407 23.5359 48.2 23.7155C48.5592 23.8951 48.9185 24.0748 49.2777 24.3741C49.5771 24.6136 49.8765 24.9729 50.0561 25.3321C50.2357 25.7513 50.3555 26.2303 50.3555 26.829C50.3555 27.0685 50.2956 27.4278 50.1759 27.787C50.0561 28.1463 49.8765 28.5654 49.637 28.9247C49.3975 29.2839 48.9784 29.5833 48.4993 29.8228C48.0203 30.0623 47.4216 30.1821 46.6432 30.1821C45.9247 30.1821 45.2661 30.0623 44.6074 29.8228C43.9488 29.5833 43.4698 29.2839 43.0507 28.8648C43.2902 28.5654 43.5297 28.2661 43.7692 27.9667C44.0087 27.6673 44.2482 27.3679 44.4877 27.0685C44.9068 27.308 45.2661 27.5475 45.5654 27.6673C45.8648 27.787 46.2241 27.8469 46.7031 27.8469C46.7031 27.8469 46.763 27.8469 46.9426 27.8469C47.0623 27.8469 47.1821 27.787 47.3617 27.7272C47.5413 27.6673 47.6611 27.5475 47.7808 27.4278C47.9006 27.308 47.9605 27.0685 48.0203 26.829C48.0203 26.4698 47.9605 26.2303 47.721 26.0507C47.4815 25.871 47.242 25.6914 46.8827 25.5716C46.5234 25.4519 46.1642 25.3321 45.8049 25.2124C45.3858 25.0926 45.0266 24.913 44.6673 24.6735C44.308 24.434 44.0087 24.1346 43.7692 23.7155C43.5297 23.2964 43.4099 22.7575 43.4099 22.0989C43.4099 21.5001 43.5297 21.0211 43.7692 20.602C44.0087 20.1828 44.308 19.8835 44.6074 19.644C44.9667 19.4045 45.3259 19.2248 45.7451 19.1051C46.1642 18.9853 46.5234 18.9254 46.8228 18.9254C47.0025 18.9254 47.242 18.9254 47.5413 18.9853C47.8407 19.0452 48.0802 19.1051 48.3796 19.1649C48.679 19.2847 48.9185 19.4044 49.2179 19.5242C49.4574 19.7038 49.6969 19.8835 49.8765 20.123Z" fill="white"/>
<path d="M64.4861 24.5538C64.4861 25.3321 64.3663 26.0507 64.0669 26.7093C63.7675 27.3679 63.3484 27.9667 62.8694 28.5056C62.3305 29.0444 61.7318 29.4037 61.0133 29.7031C60.2948 30.0024 59.5763 30.1222 58.738 30.1222C58.1392 30.1222 57.6602 30.0623 57.1812 29.9426C56.7621 29.8228 56.343 29.6432 56.0436 29.5234C55.7442 29.3438 55.5047 29.2241 55.3251 29.0444C55.1455 28.8648 55.0856 28.8049 55.0856 28.7451C55.1455 28.8648 55.1455 28.9247 55.2053 29.0444C55.2652 29.1642 55.3251 29.2839 55.3251 29.3438V37.0079H52.9301V19.1649H54.9059C54.9059 19.4045 54.906 19.644 54.9658 19.8236C55.0257 20.0032 55.0257 20.2427 55.0257 20.4822C55.0257 20.4223 55.1455 20.3026 55.3251 20.123C55.5047 19.9433 55.7442 19.7637 56.1035 19.5841C56.4028 19.4045 56.822 19.2248 57.2411 19.1051C57.6602 18.9853 58.1392 18.8656 58.6781 18.8656C59.4565 18.8656 60.2349 18.9853 60.9534 19.2847C61.6719 19.5841 62.2707 20.0032 62.8095 20.4822C63.3484 21.0211 63.7077 21.6199 64.0071 22.2785C64.3064 23.0569 64.4861 23.7754 64.4861 24.5538ZM62.0312 24.5538C62.0312 23.5957 61.7318 22.8174 61.0731 22.2186C60.4744 21.6199 59.6361 21.2606 58.6781 21.2606C57.7201 21.2606 56.8818 21.56 56.2831 22.2186C55.6843 22.8174 55.3251 23.5957 55.3251 24.5538C55.3251 25.5118 55.6245 26.2902 56.2831 26.8889C56.8818 27.5475 57.7201 27.8469 58.6781 27.8469C59.6361 27.8469 60.4744 27.5475 61.0731 26.8889C61.7318 26.2303 62.0312 25.4519 62.0312 24.5538Z" fill="white"/>
<path d="M82.7482 12.2194H85.1432V18.9254H87.9574V21.2606H85.1432V29.9426H82.7482V21.2606H80.3531V18.9254H82.7482V12.2194Z" fill="white"/>
<path d="M66.7015 2.69913L64.9052 1.38187C59.4565 3.23801 54.7263 7.01018 51.7325 12.399L54.1276 13.6564C56.7022 8.9262 60.8935 5.63304 65.6237 3.95652L66.7015 2.69913Z" fill="white"/>
<path d="M68.9169 0.304106L70.5934 1.86087L69.3959 2.93864C74.3656 2.10038 79.6346 3.05839 84.1253 5.9923L85.6222 3.71702C80.4729 0.483733 74.5452 -0.594029 68.9169 0.304106Z" fill="white"/>
<path d="M66.0428 9.10584L66.8811 7.54907C62.9892 8.86634 59.5762 11.6206 57.4806 15.4527L59.8756 16.7101C61.6719 13.4169 64.6058 11.1416 67.899 10.0639L66.0428 9.10584Z" fill="white"/>
<path d="M70.1743 6.65094L70.0546 8.08796L71.6712 9.16572C74.7249 8.92622 77.8384 9.64473 80.5927 11.3811L82.0896 9.10584C78.4372 6.83057 74.186 6.05219 70.1743 6.65094Z" fill="white"/>
<path d="M68.0188 15.8718L69.8749 14.2551L68.9768 13.4767C66.5219 14.315 64.3663 15.9915 63.0491 18.4464L65.4441 19.7038C66.3422 18.147 67.7194 16.9495 69.2163 16.2909L68.0188 15.8718Z" fill="white"/>
<path d="M72.3298 12.7582L72.6292 13.5366L71.0126 14.9138L71.6113 15.6922C73.3477 15.3928 75.6829 15.8119 77.1798 16.7699L78.6767 14.4946C76.7008 13.1774 74.4854 12.6385 72.3298 12.7582Z" fill="white"/>
<path d="M78.1378 22.3384C77.8384 21.6797 77.4193 21.081 76.9403 20.5421C76.4014 20.0631 75.8026 19.644 75.0841 19.3446C74.3656 19.0452 73.6471 18.9254 72.8687 18.9254L73.4675 20.4822L72.0903 22.6976L74.4255 23.7155L74.3057 25.871L75.5631 27.4877L74.2459 29.7031L74.5452 29.8827C74.7249 29.8228 74.9045 29.7629 75.0841 29.7031C75.8026 29.4037 76.4014 28.9846 76.9403 28.5056C77.4791 27.9667 77.8384 27.3679 78.1378 26.7093C78.4372 26.0507 78.5569 25.3321 78.5569 24.4939C78.5569 23.7754 78.4372 23.0569 78.1378 22.3384Z" fill="white"/>
<path d="M73.5872 29.7629L74.4255 27.7272L73.0484 26.35L72.8089 24.3741L69.6354 23.7155L71.3718 20.9013L70.5336 19.4044C69.875 19.7038 69.2762 20.0631 68.7972 20.602C68.2583 21.081 67.8991 21.6797 67.5997 22.3982C67.3003 23.0569 67.1805 23.8352 67.1805 24.5538C67.1805 25.3321 67.3003 26.0506 67.5997 26.7692C67.8991 27.4278 68.3182 28.0265 68.7972 28.5654C69.3361 29.1043 69.9348 29.4636 70.5935 29.7629C71.312 30.0623 72.0305 30.1821 72.8089 30.1821C73.228 30.1821 73.6471 30.1222 74.0662 30.0623L73.5872 29.7629Z" fill="white"/>
</svg>
