<svg xmlns="http://www.w3.org/2000/svg" viewBox="0 0 146.85 61.87"><defs><style>.cls-1{fill:#004b72;}.cls-2{fill:#fff;}</style></defs><g id="Ebene_2" data-name="Ebene 2"><g id="Desktop"><g id="Ebene_1-2" data-name="Ebene 1"><path class="cls-1" d="M0,35.47V31.6H3.05V25.26a11.84,11.84,0,0,1,.89-4.73,10,10,0,0,1,2.41-3.46A10.23,10.23,0,0,1,10,14.92a15.69,15.69,0,0,1,4.56-.83v3.77A8.5,8.5,0,0,0,9.14,20,6.91,6.91,0,0,0,7,25.4v6.2H12.6v3.87H7V49.94h-4V35.47Z"/><path class="cls-1" d="M21.34,49.94h-4V14.13h4Z"/><path class="cls-1" d="M25.59,41a9.16,9.16,0,0,1,.73-3.63,9.38,9.38,0,0,1,2-3,9.89,9.89,0,0,1,3-2,9.92,9.92,0,0,1,7.52,0,9.8,9.8,0,0,1,3.06,2,9.38,9.38,0,0,1,2,3A9.17,9.17,0,0,1,44.73,41,9.05,9.05,0,0,1,44,44.61a9.43,9.43,0,0,1-5.09,5,10,10,0,0,1-7.52,0,9.51,9.51,0,0,1-5.06-5A9,9,0,0,1,25.59,41Zm4,0A5.36,5.36,0,0,0,30,43.16a5.23,5.23,0,0,0,1.17,1.74A5.47,5.47,0,0,0,35,46.5a5.45,5.45,0,0,0,2.14-.43A5.93,5.93,0,0,0,39,44.9a5.14,5.14,0,0,0,1.19-1.74,5.59,5.59,0,0,0,0-4.3A5.47,5.47,0,0,0,39,37.09a5.8,5.8,0,0,0-1.77-1.19,5.57,5.57,0,0,0-4.29,0,5.44,5.44,0,0,0-1.74,1.19A5.57,5.57,0,0,0,30,38.86,5.33,5.33,0,0,0,29.55,41Z"/><path class="cls-1" d="M68.09,41a9.17,9.17,0,0,1-.74,3.63,9.51,9.51,0,0,1-8.86,5.77A9,9,0,0,1,55.94,50a10.21,10.21,0,0,1-1.89-.74,5.68,5.68,0,0,1-1.19-.79c-.29-.25-.43-.43-.43-.52a4.59,4.59,0,0,0,.24.52l.24.53V61.87h-4V32h3.3a8.36,8.36,0,0,0,.07,1.13c0,.36.09.74.12,1.12,0-.1.16-.29.48-.58a7,7,0,0,1,1.28-.88A11.88,11.88,0,0,1,56.1,32a7.09,7.09,0,0,1,2.39-.39,9.71,9.71,0,0,1,3.77.74,9.51,9.51,0,0,1,3.06,2,9.77,9.77,0,0,1,2,3A9,9,0,0,1,68.09,41Zm-4,0A5.34,5.34,0,0,0,62.52,37a6,6,0,0,0-8.06,0A5.33,5.33,0,0,0,52.91,41a5.42,5.42,0,0,0,1.55,3.94,5.88,5.88,0,0,0,8.06,0A5.43,5.43,0,0,0,64.08,41Z"/><path class="cls-2" d="M83.34,33.61c-.35.51-.71,1-1.09,1.48s-.75,1-1.1,1.48a6,6,0,0,0-.93-.67,3.43,3.43,0,0,0-1.84-.43,2.19,2.19,0,0,0-1.53.45,1.37,1.37,0,0,0-.38,1.22,1.31,1.31,0,0,0,.72.93,11,11,0,0,0,1.45.69c.56.23,1.16.48,1.79.77A8.34,8.34,0,0,1,82.2,40.6a4.87,4.87,0,0,1,1.86,4.08,6.55,6.55,0,0,1-.26,1.63,6,6,0,0,1-.93,1.86A5.5,5.5,0,0,1,81,49.7a6.8,6.8,0,0,1-3.11.62,9.72,9.72,0,0,1-3.39-.6,6.35,6.35,0,0,1-2.57-1.65c.41-.47.81-1,1.19-1.45s.78-1,1.19-1.46a13,13,0,0,0,1.77,1,4.69,4.69,0,0,0,1.86.31l.36,0a2.32,2.32,0,0,0,.69-.19,2,2,0,0,0,.69-.51,1.55,1.55,0,0,0,.36-1,1.52,1.52,0,0,0-.48-1.31,4.28,4.28,0,0,0-1.36-.76c-.55-.21-1.17-.42-1.83-.62a8.5,8.5,0,0,1-1.89-.86A4.4,4.4,0,0,1,73,39.62,5.35,5.35,0,0,1,72.46,37,4.94,4.94,0,0,1,73,34.47a5.37,5.37,0,0,1,1.44-1.65,5.61,5.61,0,0,1,1.86-.93,6.71,6.71,0,0,1,1.81-.29,9.53,9.53,0,0,1,1.17.1,8.43,8.43,0,0,1,1.41.33,8.76,8.76,0,0,1,1.41.62A4.93,4.93,0,0,1,83.34,33.61Z"/><path class="cls-2" d="M107.66,41a9.17,9.17,0,0,1-.74,3.63,9.51,9.51,0,0,1-8.86,5.77A9.06,9.06,0,0,1,95.51,50a10.21,10.21,0,0,1-1.89-.74,6,6,0,0,1-1.19-.79c-.29-.25-.43-.43-.43-.52a4.59,4.59,0,0,0,.24.52l.24.53V61.87h-4V32h3.29a8.36,8.36,0,0,0,.07,1.13c.05.36.09.74.12,1.12,0-.1.16-.29.48-.58a7.14,7.14,0,0,1,1.29-.88A11.5,11.5,0,0,1,95.68,32a7,7,0,0,1,2.38-.39,9.67,9.67,0,0,1,3.77.74,9.51,9.51,0,0,1,3.06,2,9.77,9.77,0,0,1,2,3A9,9,0,0,1,107.66,41Zm-4,0A5.37,5.37,0,0,0,102.1,37,6,6,0,0,0,94,37,5.33,5.33,0,0,0,92.48,41,5.42,5.42,0,0,0,94,44.9a5.89,5.89,0,0,0,8.07,0A5.46,5.46,0,0,0,103.65,41Z"/><path class="cls-2" d="M138.21,20.39h4V31.6h4.68v3.87h-4.68V49.94h-4V35.47h-4V31.6h4Z"/><path class="cls-2" d="M111.42,4.5l-3-2.15a39.23,39.23,0,0,0-22,18.38l4,2.13A34.77,34.77,0,0,1,109.67,6.7Z"/><path class="cls-2" d="M115.12.53l2.77,2.64-2,1.82a34.75,34.75,0,0,1,24.63,5.11l2.47-3.78A39.26,39.26,0,0,0,115.12.53Z"/><path class="cls-2" d="M110.28,15.22l1.4-2.62A28.57,28.57,0,0,0,95.94,25.79l4,2.14A24.06,24.06,0,0,1,113.34,16.8Z"/><path class="cls-2" d="M117.21,11.08,117,13.51l2.7,1.83a24,24,0,0,1,14.94,3.74l2.47-3.78A28.51,28.51,0,0,0,117.21,11.08Z"/><path class="cls-2" d="M113.56,26.51l3-2.66-1.46-1.34a18.14,18.14,0,0,0-9.94,8.26l4,2.13a13.58,13.58,0,0,1,6.34-5.7Z"/><path class="cls-2" d="M120.77,21.27l.47,1.26-2.74,2.28,1,1.26a14.69,14.69,0,0,1,9.31,1.81l2.47-3.78A17.94,17.94,0,0,0,120.77,21.27Z"/><path class="cls-2" d="M130.5,37.33a9.22,9.22,0,0,0-2-3,9.87,9.87,0,0,0-3-2,9.73,9.73,0,0,0-3.73-.73l1,2.64L120.39,38l3.88,1.71-.2,3.59,2.12,2.66L124,49.64l.47.32c.31-.1.63-.21.94-.33a9.75,9.75,0,0,0,3-2,9.6,9.6,0,0,0,2-3,9.05,9.05,0,0,0,.74-3.65A9.17,9.17,0,0,0,130.5,37.33Z"/><path class="cls-2" d="M122.88,49.67l1.35-3.41L121.93,44l-.36-3.29-5.32-1.13,2.89-4.68-1.35-2.46a9.54,9.54,0,0,0-2.92,2,9.22,9.22,0,0,0-2,3A9,9,0,0,0,112.1,41a8.89,8.89,0,0,0,.74,3.65,9.47,9.47,0,0,0,8.8,5.75,10,10,0,0,0,2.07-.21Z"/></g></g></g></svg>