<svg xmlns="http://www.w3.org/2000/svg" viewBox="0 0 135.57 135.57"><defs><style>.cls-1{fill:#004b72;}.cls-2{fill:none;stroke:#fff;stroke-miterlimit:10;stroke-width:2px;}</style></defs><g id="Ebene_2" data-name="Ebene 2"><g id="Desktop"><g id="Ebene_1-2" data-name="Ebene 1"><circle class="cls-1" cx="67.79" cy="67.79" r="67.79"/><path class="cls-2" d="M48.21,35.54c-3.65.83,4.06,21,4.06,21S43.51,52,34.36,53.93C29.48,55,22.7,68.5,26.43,72.39s22.44-2.57,24.34-1.24,5.58,8.14,9.88,8.89,12.73-2.76,12.73-2.76l0,4.49c-7.75.45-14.59,1.23-15,2.16-1,2.14,3.11,21.23,6,23.38S95.13,105.16,96.1,104s1.79-20.07,0-21.82c-.64-.63-5.63-.86-11.77-.79l-.84-5.77s11,.21,13.13-1.74c3.85-3.6,4.8-38.43,1.94-40.33S73.12,29.8,48.21,35.54Z"/></g></g></g></svg>