<svg xmlns="http://www.w3.org/2000/svg" viewBox="0 0 179.2 159.86"><defs><style>.cls-1{fill:#fff;}</style></defs><g id="Ebene_2" data-name="Ebene 2"><g id="Ebene_1-2" data-name="Ebene 1"><path class="cls-1" d="M79.15,14.29,69.71,7.45A124.67,124.67,0,0,0,0,65.79l12.64,6.78a110.33,110.33,0,0,1,61-51.31Z"/><path class="cls-1" d="M90.9,1.68l8.77,8.4-6.5,5.75a110.42,110.42,0,0,1,78.18,16.24l7.85-12A124.58,124.58,0,0,0,90.9,1.68Z"/><path class="cls-1" d="M75.52,48.32,80,40A90.69,90.69,0,0,0,30,81.87l12.67,6.8A76.4,76.4,0,0,1,85.24,53.33Z"/><path class="cls-1" d="M97.5,35.17l-.77,7.7,8.57,5.82a76.23,76.23,0,0,1,47.4,11.88l7.86-12A90.58,90.58,0,0,0,97.5,35.17Z"/><path class="cls-1" d="M85.91,84.14l9.7-8.44L91,71.44A57.47,57.47,0,0,0,59.44,97.65l12.64,6.78A43.21,43.21,0,0,1,92.2,86.33Z"/><path class="cls-1" d="M108.83,67.5l1.47,4-8.7,7.21,3.27,4c9.24-1.47,21.56.67,29.56,5.76l7.85-12A57.3,57.3,0,0,0,108.83,67.5Z"/><path class="cls-1" d="M139.7,118.5a29.6,29.6,0,0,0-6.44-9.47,30.86,30.86,0,0,0-21.54-8.71l3.29,8.4-7.4,11.73,12.32,5.43-.65,11.39,6.75,8.45-6.94,11.83,1.49,1a29.35,29.35,0,0,0,3-1.06,29.86,29.86,0,0,0,9.7-6.44,30.63,30.63,0,0,0,6.44-9.47,29.67,29.67,0,0,0,0-23.1Z"/><path class="cls-1" d="M115.51,157.67l4.29-10.84-7.32-7.33-1.12-10.44-16.9-3.58,9.2-14.85-4.3-7.81A30.93,30.93,0,0,0,90.07,109a29.6,29.6,0,0,0-6.44,9.47,29.67,29.67,0,0,0,0,23.1,30.63,30.63,0,0,0,6.44,9.47,30.25,30.25,0,0,0,21.52,8.79,32.25,32.25,0,0,0,6.57-.68Z"/></g></g></svg>